<svg id="Isolation_Mode" data-name="Isolation Mode" xmlns="http://www.w3.org/2000/svg" viewBox="0 0 202.907 103.618"><defs><style>.cls-1{fill:none;stroke:#9c917c;stroke-miterlimit:10;stroke-width:5.384px;}.cls-2{fill:#9c917c;}.cls-3{font-size:25.427px;fill:#726658;font-family:Helvetica-Bold, Helvetica;font-weight:700;}.cls-4{letter-spacing:0.005em;}</style></defs><title>logo</title><polyline class="cls-1" points="106.955 60.405 2.692 60.405 2.692 2.692 11.449 2.692"/><polyline class="cls-1" points="28.95 2.692 200.215 2.692 200.215 60.405 123.452 60.405"/><path class="cls-2" d="M39.705,14.311a9.8,9.8,0,0,1,4.133,3.279,8.766,8.766,0,0,1,1.677,3.848,47.64,47.64,0,0,1,.3,6.451V47.507H36.908V27.18a8.994,8.994,0,0,0-.913-4.354Q34.81,20.5,31.5,20.5a6.17,6.17,0,0,0-5.213,2.315A10.654,10.654,0,0,0,24.5,29.418V47.507H15.777V.05H24.5V18.444a10.689,10.689,0,0,1,4.376-4.058,12.332,12.332,0,0,1,5.23-1.148A14.123,14.123,0,0,1,39.705,14.311Z"/><path class="cls-2" d="M91.275,43.424q-4.228,5.217-12.832,5.217T65.611,43.424a19.317,19.317,0,0,1-4.227-12.562,19.442,19.442,0,0,1,4.227-12.514q4.225-5.295,12.832-5.294t12.832,5.294A19.452,19.452,0,0,1,95.5,30.862,19.326,19.326,0,0,1,91.275,43.424ZM84.291,38.6q2.053-2.723,2.052-7.738t-2.052-7.721a7.758,7.758,0,0,0-11.775,0q-2.067,2.706-2.067,7.721T72.516,38.6a7.73,7.73,0,0,0,11.775,0Z"/><path class="cls-2" d="M139.229,17.709q4.084,4.319,4.084,12.679,0,8.82-3.991,13.445a12.958,12.958,0,0,1-10.281,4.624,10.78,10.78,0,0,1-6.658-1.991,12.871,12.871,0,0,1-2.835-3.215V63.307h-8.636V14.126h8.36v4.93a14.049,14.049,0,0,1,3.02-3.429,11.146,11.146,0,0,1,6.966-2.236A13.2,13.2,0,0,1,139.229,17.709Zm-6.7,6.278a6.213,6.213,0,0,0-5.771-2.97,6.563,6.563,0,0,0-6.59,4.5,16.905,16.905,0,0,0-.928,6.063q0,5.82,3.122,8.177a7.165,7.165,0,0,0,4.394,1.378,6.39,6.39,0,0,0,5.617-2.817,13.037,13.037,0,0,0,1.934-7.5A13.045,13.045,0,0,0,132.531,23.987Z"/><path class="cls-2" d="M180.63,14.8A13.588,13.588,0,0,1,186.4,19.74a16.4,16.4,0,0,1,2.659,6.9,42.64,42.64,0,0,1,.288,6.625H165.033q.2,5.022,3.491,7.044a8.867,8.867,0,0,0,4.812,1.255,6.777,6.777,0,0,0,6.643-3.828h8.911a10.9,10.9,0,0,1-3.235,6.033q-4.487,4.869-12.56,4.87a18.2,18.2,0,0,1-11.758-4.108q-5.094-4.106-5.093-13.364,0-8.675,4.6-13.3a16.1,16.1,0,0,1,11.938-4.628A19,19,0,0,1,180.63,14.8Zm-13.057,7.54a9.068,9.068,0,0,0-2.326,5.167h15.038a7.283,7.283,0,0,0-2.326-5.274,7.646,7.646,0,0,0-5.176-1.8A6.918,6.918,0,0,0,167.573,22.342Z"/><text class="cls-3" transform="translate(36.774 91.389)">THA<tspan class="cls-4" x="52.258" y="0">I</tspan><tspan x="59.449" y="0">LAND</tspan></text></svg>